<svg width="10" height="10" viewBox="0 0 10 10" fill="none" xmlns="http://www.w3.org/2000/svg">
<path d="M0.5 0.5H9.5V9.5H0.5V0.5Z" fill="#AF52DE"/>
<path d="M2.5 2.32C2.5 2.20799 2.5 2.15198 2.5218 2.1092C2.54097 2.07157 2.57157 2.04097 2.6092 2.0218C2.65198 2 2.70799 2 2.82 2H7.18C7.29201 2 7.34802 2 7.3908 2.0218C7.42843 2.04097 7.45903 2.07157 7.4782 2.1092C7.5 2.15198 7.5 2.20799 7.5 2.32V7.68C7.5 7.79201 7.5 7.84802 7.4782 7.8908C7.45903 7.92843 7.42843 7.95903 7.3908 7.9782C7.34802 8 7.29201 8 7.18 8H2.82C2.70799 8 2.65198 8 2.6092 7.9782C2.57157 7.95903 2.54097 7.92843 2.5218 7.8908C2.5 7.84802 2.5 7.79201 2.5 7.68V2.32Z" fill="white"/>
<path d="M4.234 1.4H3.766C3.76591 1.4 3.76577 1.4 3.76561 1.4C3.76373 1.39999 3.75743 1.39997 3.75129 1.40047C3.74344 1.40111 3.72758 1.40306 3.71006 1.41199C3.68936 1.42254 3.67254 1.43936 3.66199 1.46006C3.65306 1.47758 3.65111 1.49344 3.65047 1.50129C3.64997 1.50743 3.64999 1.51373 3.65 1.51561C3.65 1.51577 3.65 1.51591 3.65 1.516V2.484C3.65 2.48409 3.65 2.48423 3.65 2.48439C3.64999 2.48627 3.64997 2.49257 3.65047 2.49871C3.65111 2.50656 3.65306 2.52242 3.66199 2.53994C3.67254 2.56064 3.68936 2.57746 3.71006 2.58801C3.72758 2.59694 3.74344 2.59889 3.75129 2.59953C3.75743 2.60003 3.76373 2.60001 3.76561 2.6C3.76577 2.6 3.76591 2.6 3.766 2.6H4.234C4.23409 2.6 4.23423 2.6 4.23439 2.6C4.23627 2.60001 4.24257 2.60003 4.24871 2.59953C4.25656 2.59889 4.27242 2.59694 4.28994 2.58801C4.31064 2.57746 4.32746 2.56064 4.33801 2.53994C4.34694 2.52242 4.34889 2.50656 4.34953 2.49871C4.35003 2.49257 4.35001 2.48627 4.35 2.48439C4.35 2.48423 4.35 2.48409 4.35 2.484V1.516C4.35 1.51591 4.35 1.51577 4.35 1.51561C4.35001 1.51373 4.35003 1.50743 4.34953 1.50129C4.34889 1.49344 4.34694 1.47758 4.33801 1.46006C4.32746 1.43936 4.31064 1.42254 4.28994 1.41199C4.27242 1.40306 4.25656 1.40111 4.24871 1.40047C4.24257 1.39997 4.23627 1.39999 4.23439 1.4C4.23423 1.4 4.23409 1.4 4.234 1.4Z" fill="white" stroke="#AF52DE" stroke-width="0.2"/>
<path d="M5.234 1.4H4.766C4.76591 1.4 4.76577 1.4 4.76561 1.4C4.76373 1.39999 4.75743 1.39997 4.75129 1.40047C4.74344 1.40111 4.72758 1.40306 4.71006 1.41199C4.68936 1.42254 4.67254 1.43936 4.66199 1.46006C4.65306 1.47758 4.65111 1.49344 4.65047 1.50129C4.64997 1.50743 4.64999 1.51373 4.65 1.51561C4.65 1.51577 4.65 1.51591 4.65 1.516V2.484C4.65 2.48409 4.65 2.48423 4.65 2.48439C4.64999 2.48627 4.64997 2.49257 4.65047 2.49871C4.65111 2.50656 4.65306 2.52242 4.66199 2.53994C4.67254 2.56064 4.68936 2.57746 4.71006 2.58801C4.72758 2.59694 4.74344 2.59889 4.75129 2.59953C4.75743 2.60003 4.76373 2.60001 4.76561 2.6C4.76577 2.6 4.76591 2.6 4.766 2.6H5.234C5.23409 2.6 5.23423 2.6 5.23439 2.6C5.23627 2.60001 5.24257 2.60003 5.24871 2.59953C5.25656 2.59889 5.27242 2.59694 5.28994 2.58801C5.31064 2.57746 5.32746 2.56064 5.33801 2.53994C5.34694 2.52242 5.34889 2.50656 5.34953 2.49871C5.35003 2.49257 5.35001 2.48627 5.35 2.48439C5.35 2.48423 5.35 2.48409 5.35 2.484V1.516C5.35 1.51591 5.35 1.51577 5.35 1.51561C5.35001 1.51373 5.35003 1.50743 5.34953 1.50129C5.34889 1.49344 5.34694 1.47758 5.33801 1.46006C5.32746 1.43936 5.31064 1.42254 5.28994 1.41199C5.27242 1.40306 5.25656 1.40111 5.24871 1.40047C5.24257 1.39997 5.23627 1.39999 5.23439 1.4C5.23423 1.4 5.23409 1.4 5.234 1.4Z" fill="white" stroke="#AF52DE" stroke-width="0.2"/>
<path d="M6.234 1.4H5.766C5.76591 1.4 5.76577 1.4 5.76561 1.4C5.76373 1.39999 5.75743 1.39997 5.75129 1.40047C5.74344 1.40111 5.72758 1.40306 5.71006 1.41199C5.68936 1.42254 5.67254 1.43936 5.66199 1.46006C5.65306 1.47758 5.65111 1.49344 5.65047 1.50129C5.64997 1.50743 5.64999 1.51373 5.65 1.51561C5.65 1.51577 5.65 1.51591 5.65 1.516V2.484C5.65 2.48409 5.65 2.48423 5.65 2.48439C5.64999 2.48627 5.64997 2.49257 5.65047 2.49871C5.65111 2.50656 5.65306 2.52242 5.66199 2.53994C5.67254 2.56064 5.68936 2.57746 5.71006 2.58801C5.72758 2.59694 5.74344 2.59889 5.75129 2.59953C5.75743 2.60003 5.76373 2.60001 5.76561 2.6C5.76577 2.6 5.76591 2.6 5.766 2.6H6.234C6.23409 2.6 6.23423 2.6 6.23439 2.6C6.23627 2.60001 6.24257 2.60003 6.24871 2.59953C6.25656 2.59889 6.27242 2.59694 6.28994 2.58801C6.31064 2.57746 6.32746 2.56064 6.33801 2.53994C6.34694 2.52242 6.34889 2.50656 6.34953 2.49871C6.35003 2.49257 6.35001 2.48627 6.35 2.48439C6.35 2.48423 6.35 2.48409 6.35 2.484V1.516C6.35 1.51591 6.35 1.51577 6.35 1.51561C6.35001 1.51373 6.35003 1.50743 6.34953 1.50129C6.34889 1.49344 6.34694 1.47758 6.33801 1.46006C6.32746 1.43936 6.31064 1.42254 6.28994 1.41199C6.27242 1.40306 6.25656 1.40111 6.24871 1.40047C6.24257 1.39997 6.23627 1.39999 6.23439 1.4C6.23423 1.4 6.23409 1.4 6.234 1.4Z" fill="white" stroke="#AF52DE" stroke-width="0.2"/>
<mask id="path-6-inside-1_0_1" fill="white">
<path d="M3.85582 3.81818H4.33949L4.98722 5.39915H5.01278L5.66051 3.81818H6.14418V6H5.76491V4.50107H5.74467L5.14169 5.99361H4.85831L4.25533 4.49787H4.23509V6H3.85582V3.81818Z"/>
</mask>
<path d="M3.85582 3.81818H4.33949L4.98722 5.39915H5.01278L5.66051 3.81818H6.14418V6H5.76491V4.50107H5.74467L5.14169 5.99361H4.85831L4.25533 4.49787H4.23509V6H3.85582V3.81818Z" fill="white"/>
<path d="M3.85582 3.81818V2.81818H2.85582V3.81818H3.85582ZM4.33949 3.81818L5.26484 3.43906L5.01046 2.81818H4.33949V3.81818ZM4.98722 5.39915L4.06187 5.77827L4.31625 6.39915H4.98722V5.39915ZM5.01278 5.39915V6.39915H5.68375L5.93813 5.77827L5.01278 5.39915ZM5.66051 3.81818V2.81818H4.98954L4.73516 3.43906L5.66051 3.81818ZM6.14418 3.81818H7.14418V2.81818H6.14418V3.81818ZM6.14418 6V7H7.14418V6H6.14418ZM5.76491 6H4.76491V7H5.76491V6ZM5.76491 4.50107H6.76491V3.50107H5.76491V4.50107ZM5.74467 4.50107V3.50107H5.07015L4.81748 4.12648L5.74467 4.50107ZM5.14169 5.99361V6.99361H5.81622L6.06888 6.36819L5.14169 5.99361ZM4.85831 5.99361L3.93084 6.3675L4.18324 6.99361H4.85831V5.99361ZM4.25533 4.49787L5.1828 4.12397L4.93039 3.49787H4.25533V4.49787ZM4.23509 4.49787V3.49787H3.23509V4.49787H4.23509ZM4.23509 6V7H5.23509V6H4.23509ZM3.85582 6H2.85582V7H3.85582V6ZM3.85582 4.81818H4.33949V2.81818H3.85582V4.81818ZM3.41414 4.1973L4.06187 5.77827L5.91256 5.02003L5.26484 3.43906L3.41414 4.1973ZM4.98722 6.39915H5.01278V4.39915H4.98722V6.39915ZM5.93813 5.77827L6.58586 4.1973L4.73516 3.43906L4.08744 5.02003L5.93813 5.77827ZM5.66051 4.81818H6.14418V2.81818H5.66051V4.81818ZM5.14418 3.81818V6H7.14418V3.81818H5.14418ZM6.14418 5H5.76491V7H6.14418V5ZM6.76491 6V4.50107H4.76491V6H6.76491ZM5.76491 3.50107H5.74467V5.50107H5.76491V3.50107ZM4.81748 4.12648L4.2145 5.61902L6.06888 6.36819L6.67187 4.87565L4.81748 4.12648ZM5.14169 4.99361H4.85831V6.99361H5.14169V4.99361ZM5.78578 5.61971L5.1828 4.12397L3.32786 4.87176L3.93084 6.3675L5.78578 5.61971ZM4.25533 3.49787H4.23509V5.49787H4.25533V3.49787ZM3.23509 4.49787V6H5.23509V4.49787H3.23509ZM4.23509 5H3.85582V7H4.23509V5ZM4.85582 6V3.81818H2.85582V6H4.85582Z" fill="#AF52DE" mask="url(#path-6-inside-1_0_1)"/>
</svg>
